<svg width="900" height="900" viewBox="0 0 900 900" fill="none" xmlns="http://www.w3.org/2000/svg">
<path d="M471.517 223.925C378.211 264.778 291.331 322.06 221.517 396.632C189.517 430.965 159.717 467.739 136.091 508.418C116.944 542.005 101.837 579.672 103.024 618.965C103.464 642.578 110.344 666.259 123.611 685.899C138.437 707.872 161.277 723.245 185.571 733.085C215.424 745.072 247.704 750.818 279.851 750.312C313.424 750.178 346.731 745.018 379.731 739.232C427.877 730.285 476.304 720.058 521.437 700.539C514.544 701.939 508.104 705.005 501.211 706.459C451.144 721.165 397.291 722.672 346.477 710.739C273.104 693.912 206.597 648.765 164.331 586.418C188.024 585.898 211.757 586.378 235.451 586.178C274.811 627.098 328.331 654.512 384.851 660.965C426.937 665.77 404.864 665.372 417.297 666.405C443.797 668.607 445.697 703.711 417.297 666.405C397.271 662.465 423.197 668.852 426.937 664.465L433.437 662.965L437.937 662.465L443.937 661.465C440.777 663.798 438.437 661.792 446.717 660.859C503.011 654.512 556.224 627.045 595.544 586.458C614.731 585.885 634.024 586.285 653.264 586.272C681.584 547.819 699.997 502.151 706.584 454.872C714.197 400.926 706.624 344.911 684.611 295.045C664.731 249.472 632.784 209.391 593.251 179.285C551.864 191.791 511.104 206.472 471.517 223.925ZM744.291 98.965H755.451C764.357 100.578 773.197 103.472 780.557 108.898C794.411 118.658 802.651 135.499 802.397 152.392C814.851 157.952 826.877 164.605 837.531 173.178C854.491 186.538 867.864 204.459 875.477 224.685C883.544 245.711 885.624 268.645 883.797 290.965C881.491 316.885 874.331 342.179 864.504 366.218C844.757 413.658 815.837 456.859 782.651 495.898C790.037 483.205 799.117 471.592 806.677 458.992C824.504 429.765 841.917 399.978 853.851 367.765C862.224 344.939 867.864 320.778 867.517 296.352C867.851 270.339 862.011 243.725 847.944 221.605C835.344 202.152 816.371 187.338 795.397 177.818C792.611 182.245 789.571 186.578 785.691 190.125C770.077 205.005 744.984 208.045 726.011 198.032C711.864 190.938 701.744 177.045 698.491 161.632C667.424 163.018 636.811 169.152 606.397 175.245C617.504 184.951 628.784 194.565 638.691 205.552C672.077 241.284 696.571 285.206 709.544 332.352C724.837 387.351 724.171 446.659 707.651 501.298C693.104 549.938 666.197 594.832 630.024 630.459C607.064 653.218 580.504 672.592 550.931 685.805C551.064 686.365 551.331 687.472 551.451 688.018C485.757 726.951 415.531 758.752 341.944 779.512C288.891 794.205 233.704 803.618 178.504 800.405C144.011 798.259 109.024 790.832 78.9309 773.205C55.984 759.899 36.784 739.645 26.4241 715.072C13.9174 685.779 13.1705 652.645 19.4372 621.752C25.4507 590.926 37.384 561.538 52.0372 533.872C74.2241 492.459 102.664 454.671 134.024 419.805C195.197 352.3 267.664 295.538 345.691 248.752C420.731 204.259 501.504 168.391 586.597 148.205C623.864 139.525 662.011 134.032 700.317 134.058C703.304 127.218 706.851 120.498 712.157 115.165C720.571 106.178 732.277 100.978 744.291 98.965Z" fill="#2F6BFF"/>
<path d="M262.754 162.322C324.381 115.909 404.141 94.0688 480.768 103.642C481.088 103.882 481.741 104.335 482.061 104.575C389.861 141.229 303.474 192.002 225.261 252.962C201.008 271.949 177.688 292.109 155.181 313.162C174.234 253.335 212.354 199.775 262.754 162.322Z" fill="#2F6BFF"/>
<path d="M364.368 173.455C409.688 147.895 456.888 125.695 505.594 107.362C511.794 108.869 517.981 110.549 524.288 111.615C522.634 114.149 518.981 113.949 516.501 115.242C429.328 146.975 347.074 191.669 271.808 245.789C233.901 273.202 197.701 303.029 164.128 335.602C157.661 341.682 151.714 348.282 145.141 354.255C146.181 347.402 146.568 339.815 150.088 333.789C213.901 271.055 286.568 217.535 364.368 173.455Z" fill="#2F6BFF"/>
<path d="M387.595 185.989C436.035 159.509 486.635 136.882 538.968 119.255C545.848 115.842 552.395 121.922 559.115 123.189C558.461 125.695 555.301 125.375 553.368 126.295C500.888 142.882 450.275 165.055 401.728 190.909C323.221 232.962 249.888 284.949 185.141 346.175C169.795 360.789 154.914 375.909 140.768 391.695C141.248 385.682 141.248 379.655 142.235 373.695C213.115 298.335 297.075 235.789 387.595 185.989Z" fill="#2F6BFF"/>
<path d="M311.307 398.32L300.198 528.754H352.364L341.266 398.32H311.307Z" fill="#2F6BFF"/>
<path d="M493.907 398.32L482.809 528.754H534.976L523.866 398.32H493.907Z" fill="#2F6BFF"/>
<path d="M553.944 541.798H281.229V567.876H553.944V541.798Z" fill="#2F6BFF"/>
<path d="M567.587 574.398H267.587V587.443H567.587V574.398Z" fill="#2F6BFF"/>
<path d="M378.453 395.016L400.998 417.213L391.509 528.754H443.675L434.164 417.202L456.709 395.005V385.265H561.075V363.492L417.587 293.965L274.109 363.492V385.265H378.464L378.453 395.016ZM443.654 389.559L417.587 415.235L391.509 389.559V352.654H443.675V389.559H443.654Z" fill="#2F6BFF"/>
<path d="M601.583 585.965C569.485 645.372 495.38 686.965 409.085 686.965C322.789 686.965 248.684 645.372 216.587 585.965H601.583Z" fill="#2F6BFF"/>
</svg>
